<svg width="24" height="24" viewBox="0 0 24 24" fill="none" xmlns="http://www.w3.org/2000/svg">
<path d="M3 3L21 21" stroke="#C9EFF4" stroke-width="1.5" stroke-linecap="round" stroke-linejoin="round"/>
<path d="M10.5 10.6768C10.1888 11.0293 10 11.4924 10 11.9997C10 13.1042 10.8954 13.9997 12 13.9997C12.5072 13.9997 12.9703 13.8109 13.3229 13.4997" stroke="#C9EFF4" stroke-width="1.5" stroke-linecap="round" stroke-linejoin="round"/>
<path d="M7.36185 7.56152C5.68002 8.74011 4.27894 10.4193 3 12.0005C4.88856 14.9914 8.2817 18.0005 12 18.0005C13.5499 18.0005 15.0434 17.4776 16.3949 16.6512" stroke="#C9EFF4" stroke-width="1.5" stroke-linecap="round" stroke-linejoin="round"/>
<path d="M12 6C16.0084 6 18.7015 9.1582 21 12C20.6815 12.5043 20.3203 13.0092 19.922 13.5" stroke="#C9EFF4" stroke-width="1.5" stroke-linecap="round" stroke-linejoin="round"/>
</svg>
