<svg width="104" height="32" viewBox="0 0 104 32" fill="none" xmlns="http://www.w3.org/2000/svg">
<g id="LOGO TELEF&#195;&#147;NICA">
<g id="Clip path group">
<mask id="mask0_238_117772" style="mask-type:luminance" maskUnits="userSpaceOnUse" x="0" y="0" width="104" height="32">
<g id="clip-Tama&#195;&#177;o_personalizado_1">
<path id="Vector" d="M104 0H0V31.2H104V0Z" fill="white"/>
</g>
</mask>
<g mask="url(#mask0_238_117772)">
<g id="Tama&#195;&#177;o personalizado &#226;&#128;&#147; 1">
<path id="Elipse 1" d="M11.0891 11.4088C12.8327 11.4088 14.2462 10.0189 14.2462 8.3044C14.2462 6.58988 12.8327 5.2 11.0891 5.2C9.34557 5.2 7.93213 6.58988 7.93213 8.3044C7.93213 10.0189 9.34557 11.4088 11.0891 11.4088Z" fill="#FAFEFF"/>
<path id="Elipse 2" d="M18.5076 11.4088C20.2512 11.4088 21.6646 10.0189 21.6646 8.3044C21.6646 6.58988 20.2512 5.2 18.5076 5.2C16.764 5.2 15.3506 6.58988 15.3506 8.3044C15.3506 10.0189 16.764 11.4088 18.5076 11.4088Z" fill="#FAFEFF"/>
<path id="Elipse 3" d="M25.9268 11.4088C27.6704 11.4088 29.0838 10.0189 29.0838 8.3044C29.0838 6.58988 27.6704 5.2 25.9268 5.2C24.1832 5.2 22.7698 6.58988 22.7698 8.3044C22.7698 10.0189 24.1832 11.4088 25.9268 11.4088Z" fill="#FAFEFF"/>
<path id="Elipse 4" d="M18.5076 18.7044C20.2512 18.7044 21.6646 17.3145 21.6646 15.6C21.6646 13.8855 20.2512 12.4956 18.5076 12.4956C16.764 12.4956 15.3506 13.8855 15.3506 15.6C15.3506 17.3145 16.764 18.7044 18.5076 18.7044Z" fill="#FAFEFF"/>
<path id="Elipse 5" d="M18.5076 26C20.2512 26 21.6646 24.6101 21.6646 22.8956C21.6646 21.1811 20.2512 19.7912 18.5076 19.7912C16.764 19.7912 15.3506 21.1811 15.3506 22.8956C15.3506 24.6101 16.764 26 18.5076 26Z" fill="#FAFEFF"/>
<path id="Trazado 1" d="M35.813 13.1803H32.8745V11.4591H40.5802V13.1803H37.6338V21.1016H35.813V13.1803Z" fill="#FAFEFF"/>
<path id="Trazado 2" d="M46.726 19.0354C46.5718 19.5866 45.6895 21.2394 43.4341 21.2394C41.333 21.2394 39.7915 19.7244 39.7915 17.589C39.7915 15.4535 41.333 13.9386 43.4341 13.9386C45.3952 13.9386 46.9366 15.4535 46.9366 17.4512C46.9332 17.6171 46.9191 17.7827 46.8943 17.9469L46.8661 18.1402H41.5428C41.697 19.1178 42.4391 19.7929 43.4341 19.7929C44.2609 19.7929 44.765 19.3249 44.9051 19.0354H46.726ZM45.1854 16.9693C45.0312 16.0732 44.4283 15.385 43.4341 15.385C42.3695 15.385 41.7525 16.0732 41.5428 16.9693H45.1854Z" fill="#FAFEFF"/>
<path id="Trazado 3" d="M47.9863 11.4591H49.7376V21.1016H47.9863V11.4591Z" fill="#FAFEFF"/>
<path id="Trazado 4" d="M57.7217 19.0354C57.5675 19.5866 56.6853 21.2394 54.429 21.2394C52.3278 21.2394 50.7872 19.7244 50.7872 17.589C50.7872 15.4535 52.3278 13.9386 54.429 13.9386C56.3909 13.9386 57.9315 15.4535 57.9315 17.4512C57.9281 17.6171 57.914 17.7827 57.8892 17.9469L57.8619 18.1402H52.5376C52.6918 19.1178 53.4348 19.7929 54.429 19.7929C55.2557 19.7929 55.7598 19.3249 55.9 19.0354H57.7217ZM56.1803 16.9693C56.026 16.0732 55.424 15.385 54.429 15.385C53.3643 15.385 52.7482 16.0732 52.5376 16.9693H56.1803Z" fill="#FAFEFF"/>
<path id="Trazado 5" d="M59.5418 15.7291H58.3511V14.0764H59.5418V13.0424C59.5418 11.9955 60.2284 11.3204 61.293 11.3204H62.8345V12.8362H61.7831C61.7182 12.8345 61.6537 12.8458 61.5934 12.8694C61.5332 12.8931 61.4784 12.9285 61.4325 12.9735C61.3866 13.0186 61.3505 13.0724 61.3263 13.1316C61.3022 13.1908 61.2906 13.2543 61.2922 13.318V14.0764H62.8336V15.7291H61.2922V21.1024H59.5409L59.5418 15.7291Z" fill="#FAFEFF"/>
<path id="Trazado 6" d="M70.3815 17.5933C70.3815 19.7288 68.84 21.2437 66.7388 21.2437C64.6377 21.2437 63.0962 19.7245 63.0962 17.5933C63.0962 15.4622 64.6377 13.9429 66.7388 13.9429C68.84 13.9429 70.3815 15.4535 70.3815 17.5933ZM68.6302 17.5933C68.6302 16.3531 67.7894 15.5272 66.7388 15.5272C65.6883 15.5272 64.8474 16.3531 64.8474 17.5933C64.8474 18.8335 65.6883 19.6595 66.7388 19.6595C67.7894 19.6595 68.6302 18.8292 68.6302 17.5933Z" fill="#FAFEFF"/>
<path id="Trazado 7" d="M71.4313 14.0764H73.0424L73.1825 14.7697H73.2522C73.391 14.611 73.5515 14.4719 73.729 14.3563C74.1719 14.0779 74.6884 13.9341 75.2141 13.9429C76.8252 13.9429 78.0159 15.1138 78.0159 16.9043V21.1059H76.2646V17.0378C76.2646 16.1425 75.6345 15.5229 74.7231 15.5229C73.8118 15.5229 73.1825 16.1425 73.1825 17.0378V21.1016H71.4313V14.0764Z" fill="#FAFEFF"/>
<path id="Trazado 8" d="M89.1615 18.4842C88.9376 19.5866 88.0554 21.2394 85.7991 21.2394C83.698 21.2394 82.1573 19.7244 82.1573 17.589C82.1573 15.4535 83.698 13.9386 85.7991 13.9386C88.0554 13.9386 88.9376 15.5913 89.1615 16.6252H87.4111C87.2569 16.2257 86.8506 15.5237 85.7991 15.5237C84.7477 15.5237 83.9051 16.3488 83.9051 17.5933C83.9051 18.8378 84.7459 19.6594 85.7965 19.6594C86.847 19.6594 87.2542 18.9713 87.4085 18.4886L89.1615 18.4842Z" fill="#FAFEFF"/>
<path id="Trazado 9" d="M94.4567 20.4134H94.387C94.246 20.5751 94.0804 20.7142 93.8961 20.826C93.4341 21.1075 92.8989 21.2511 92.3555 21.2394C90.7303 21.2394 89.7634 20.2618 89.7634 19.1048C89.7634 17.7268 90.7444 16.7648 92.7054 16.7648H94.3165V16.627C94.3165 15.8556 93.8406 15.3183 93.0553 15.3183C92.27 15.3183 91.8646 15.8149 91.795 16.2144H90.0437C90.1979 15.0566 91.1507 13.9412 93.0553 13.9412C94.8771 13.9412 96.0678 15.1259 96.0678 16.6278V21.105H94.5968L94.4567 20.4134ZM94.3165 18.0734H92.8455C91.9351 18.0734 91.5147 18.4201 91.5147 18.9696C91.5147 19.519 91.921 19.8648 92.6358 19.8648C93.7005 19.8648 94.3165 19.2582 94.3165 18.2806V18.0734Z" fill="#FAFEFF"/>
<path id="Trazado 10" d="M79.3563 14.0764H81.1076V21.1016H79.3563V14.0764Z" fill="#FAFEFF"/>
<path id="Elipse 6" d="M80.2315 13.0667C80.804 13.0667 81.268 12.6104 81.268 12.0475C81.268 11.4846 80.804 11.0283 80.2315 11.0283C79.6591 11.0283 79.1951 11.4846 79.1951 12.0475C79.1951 12.6104 79.6591 13.0667 80.2315 13.0667Z" fill="#FAFEFF"/>
<path id="Trazado 11" d="M67.3691 11.1141H69.1908L67.5092 13.1118H66.0382L67.3691 11.1141Z" fill="#FAFEFF"/>
</g>
</g>
</g>
</g>
</svg>
